
		<svg xmlns="http://www.w3.org/2000/svg" xmlns:xlink="http://www.w3.org/1999/xlink" version="1.1" width="3088.365243004418" height="521.3549337260678">
			
			<g transform="scale(4.418262150220913) translate(10, 10)">
				<defs id="SvgjsDefs2134"/><g id="SvgjsG2135" featureKey="root" fill="#000"/><g id="SvgjsG2136" featureKey="symbol1" fill="#000" transform="matrix(0.9886148571968079,0,0,0.9886148571968079,-4.431710823168332,-0.5162660378492916)"><path d="M85.171,25.273c-0.28-7.99-0.28-7.99-1.204-8.737l0,0c-0.598-0.484-1.385-0.666-2.135-0.492  c-18.093,4.18-27.055-2.351-29.371-4.453c-1.401-1.271-3.517-1.272-4.921,0c-2.316,2.102-11.277,8.634-29.371,4.452l-0.001,0  c-0.749-0.173-1.536,0.009-2.134,0.493l0,0c-0.924,0.748-0.924,0.748-1.204,8.737c-0.002,0.068-0.237,6.833-0.232,7.128  c0.354,22.001,9.991,41.121,26.441,52.457c1.986,1.369,4.135,2.668,6.386,3.863c0.807,0.428,1.691,0.643,2.576,0.643  s1.77-0.214,2.576-0.643c2.251-1.195,4.4-2.495,6.386-3.863c16.45-11.336,26.087-30.456,26.441-52.456  C85.408,32.105,85.173,25.341,85.171,25.273z M77.795,50.007H50V84.36c-0.081,0-0.161-0.019-0.231-0.056  c-2.083-1.105-4.065-2.305-5.894-3.564c-10.523-7.251-17.998-18.024-21.681-30.754H50V16.055c3.586,2.854,13.17,8.528,30.032,5.463  c0.146,3.87,0.364,10.394,0.372,10.802C80.304,38.511,79.406,44.445,77.795,50.007z"/></g><g id="SvgjsG2137" featureKey="text1" fill="#000" transform="matrix(3.931847095489502,0,0,3.931847095489502,96.93315275603385,-0.6592171135384035)"><path d="M13.56 7.199999999999999 c1.36 1.4 2.06 3.18 2.06 5.28 c0 1.82 -0.52 3.4 -1.56 4.72 l0.82 0.8 c0.26 0.28 0.26 0.72 0 1 l-1.06 1.06 c-0.14 0.12 -0.32 0.2 -0.5 0.2 s-0.36 -0.08 -0.5 -0.2 l-0.96 -0.98 c-1.08 0.58 -2.3 0.88 -3.66 0.88 c-2.16 0 -3.96 -0.74 -5.36 -2.2 c-1.36 -1.4 -2.06 -3.18 -2.06 -5.28 s0.7 -3.88 2.06 -5.28 c1.4 -1.46 3.2 -2.2 5.36 -2.2 s3.96 0.74 5.36 2.2 z M8.56 14.8 l1.06 -1.06 c0.28 -0.28 0.72 -0.28 0.98 0 l1.42 1.4 c0.48 -0.74 0.7 -1.62 0.7 -2.66 c0 -1.36 -0.4 -2.44 -1.2 -3.3 c-0.84 -0.9 -1.94 -1.32 -3.32 -1.32 c-1.4 0 -2.48 0.42 -3.32 1.32 c-0.82 0.86 -1.22 1.94 -1.22 3.3 s0.4 2.44 1.22 3.3 c0.84 0.9 1.92 1.32 3.32 1.32 c0.52 0 1.02 -0.06 1.48 -0.2 l-1.12 -1.12 c-0.14 -0.12 -0.2 -0.3 -0.2 -0.48 c0 -0.2 0.06 -0.36 0.2 -0.5 z M29.66 5 c0.38 0 0.7 0.32 0.7 0.7 l0 7.56 c0 1.94 -0.6 3.54 -1.78 4.76 c-1.18 1.2 -2.72 1.82 -4.58 1.82 s-3.38 -0.62 -4.56 -1.82 c-1.18 -1.22 -1.78 -2.82 -1.78 -4.76 l0 -7.56 c0 -0.38 0.32 -0.7 0.7 -0.7 l1.5 0 c0.38 0 0.7 0.32 0.7 0.7 l0 7.6 c0 1.24 0.34 2.18 1.06 2.84 c0.6 0.56 1.38 0.84 2.38 0.84 c0.98 0 1.78 -0.28 2.4 -0.84 c0.7 -0.66 1.06 -1.58 1.06 -2.84 l0 -7.6 c0 -0.38 0.3 -0.7 0.68 -0.7 l1.52 0 z M40.8 5.42 l5.6 13.22 c0.06 0.1 0.1 0.22 0.1 0.34 c0 0.38 -0.3 0.7 -0.7 0.7 l0 0 l-1.66 0 c-0.28 0 -0.54 -0.16 -0.64 -0.42 l-1.46 -3.44 l-5.66 0 l-1.44 3.44 c-0.1 0.26 -0.36 0.42 -0.64 0.42 l-1.66 0 c-0.24 0 -0.46 -0.12 -0.58 -0.32 c-0.14 -0.18 -0.16 -0.44 -0.06 -0.64 l5.64 -13.3 c0.1 -0.26 0.36 -0.42 0.64 -0.42 l1.88 0 c0.28 0 0.54 0.16 0.64 0.42 z M39.22 9.06 l-1.66 3.98 l3.32 0 z M57.64 14.02 l2.98 4.58 c0.14 0.22 0.14 0.5 0.02 0.72 s-0.36 0.36 -0.6 0.36 l-1.8 0 c-0.24 0 -0.46 -0.12 -0.58 -0.32 l-3 -4.78 l-3.54 0 l0 4.4 c0 0.38 -0.32 0.7 -0.7 0.7 l-1.5 0 c-0.38 0 -0.7 -0.32 -0.7 -0.7 l0 -13.28 c0 -0.38 0.32 -0.7 0.7 -0.7 l6.36 0 c1.52 0 2.78 0.44 3.72 1.3 c0.96 0.88 1.44 2.06 1.44 3.56 c0 1.92 -0.86 3.32 -2.48 4.02 c-0.1 0.06 -0.22 0.1 -0.32 0.14 z M51.120000000000005 7.82 l0 3.94 l3.9 0 c1.16 0 1.92 -0.32 2.34 -0.98 c0.12 -0.22 0.2 -0.54 0.2 -0.92 c0 -0.66 -0.2 -1.12 -0.62 -1.48 c-0.46 -0.38 -1.06 -0.56 -1.84 -0.56 l-3.98 0 z M70.4 5.42 l5.6 13.22 c0.06 0.1 0.1 0.22 0.1 0.34 c0 0.38 -0.3 0.7 -0.7 0.7 l0 0 l-1.66 0 c-0.28 0 -0.54 -0.16 -0.64 -0.42 l-1.46 -3.44 l-5.66 0 l-1.44 3.44 c-0.1 0.26 -0.36 0.42 -0.64 0.42 l-1.66 0 c-0.24 0 -0.46 -0.12 -0.58 -0.32 c-0.14 -0.18 -0.16 -0.44 -0.06 -0.64 l5.64 -13.3 c0.1 -0.26 0.36 -0.42 0.64 -0.42 l1.88 0 c0.28 0 0.54 0.16 0.64 0.42 z M68.82000000000001 9.06 l-1.66 3.98 l3.32 0 z M89.98 5 c0.38 0 0.7 0.32 0.7 0.7 l0 13.28 c0 0.38 -0.32 0.7 -0.7 0.7 l-1.76 0 c-0.22 0 -0.42 -0.1 -0.56 -0.28 l-6.94 -9.5 l0 9.08 c0 0.38 -0.32 0.7 -0.7 0.7 l-1.5 0 c-0.38 0 -0.7 -0.32 -0.7 -0.7 l0 -13.28 c0 -0.38 0.32 -0.7 0.7 -0.7 l1.74 0 c0.22 0 0.44 0.1 0.56 0.28 l6.96 9.46 l0 -9.04 c0 -0.38 0.3 -0.7 0.68 -0.7 l1.52 0 z M104.06000000000002 5 c0.38 0 0.68 0.32 0.68 0.7 l0 1.44 c0 0.38 -0.3 0.7 -0.68 0.7 l-3.94 0 l0 11.14 c0 0.38 -0.32 0.7 -0.7 0.7 l-1.5 0 c-0.4 0 -0.7 -0.32 -0.7 -0.7 l0 -11.14 l-3.94 0 c-0.38 0 -0.7 -0.32 -0.7 -0.7 l0 -1.44 c0 -0.38 0.32 -0.7 0.7 -0.7 l10.78 0 z M118.36000000000001 5 c0.26 0 0.5 0.14 0.62 0.38 c0.12 0.22 0.1 0.5 -0.04 0.72 l-5.44 7.84 l0 5.04 c0 0.38 -0.32 0.7 -0.7 0.7 l-1.5 0 c-0.38 0 -0.7 -0.32 -0.7 -0.7 l0 -5.04 l-5.46 -7.84 c-0.14 -0.22 -0.16 -0.5 -0.04 -0.72 c0.12 -0.24 0.36 -0.38 0.62 -0.38 l1.82 0 c0.24 0 0.44 0.12 0.58 0.3 l3.92 5.64 l3.92 -5.64 c0.14 -0.18 0.34 -0.3 0.58 -0.3 l1.82 0 z M132.84 5 c0.38 0 0.7 0.32 0.7 0.7 l0 13.28 c0 0.38 -0.32 0.7 -0.7 0.7 l-1.76 0 c-0.22 0 -0.42 -0.1 -0.56 -0.28 l-6.94 -9.5 l0 9.08 c0 0.38 -0.32 0.7 -0.7 0.7 l-1.5 0 c-0.38 0 -0.7 -0.32 -0.7 -0.7 l0 -13.28 c0 -0.38 0.32 -0.7 0.7 -0.7 l1.74 0 c0.22 0 0.44 0.1 0.56 0.28 l6.96 9.46 l0 -9.04 c0 -0.38 0.3 -0.7 0.68 -0.7 l1.52 0 z M147.24000000000004 5 c0.4 0 0.7 0.32 0.7 0.7 l0 1.44 c0 0.38 -0.3 0.7 -0.7 0.7 l-7.56 0 l0 3.06 l6.68 0 c0.4 0 0.7 0.32 0.7 0.7 l0 1.46 c0 0.38 -0.3 0.7 -0.7 0.7 l-6.68 0 l0 3.08 l7.56 0 c0.4 0 0.7 0.32 0.7 0.7 l0 1.44 c0 0.38 -0.3 0.7 -0.7 0.7 l-9.76 0 c-0.38 0 -0.7 -0.32 -0.7 -0.7 l0 -13.28 c0 -0.38 0.32 -0.7 0.7 -0.7 l9.76 0 z"/></g>
			</g>
		</svg>
	